<svg width="32" height="32" viewBox="0 0 32 32" fill="none" xmlns="http://www.w3.org/2000/svg">
  <!-- Background Circle -->
  <circle cx="16" cy="16" r="15" fill="#3B82F6" stroke="#1E40AF" stroke-width="1"/>
  
  <!-- Clean Walking Shoes Icon -->
  <g transform="translate(8, 8)">
    <!-- Left Shoe - Clean, modern design -->
    <path d="M3 8 Q4 7 5 6.5 Q6 6 7 6.5 Q8 7 8.5 8 Q9 9 8.5 10 Q8 11 7 11.5 Q6 12 5 11.5 Q4 11 3 10 Z" fill="white" stroke="#1E40AF" stroke-width="0.3"/>
    <path d="M4 9 Q4.5 8.5 5 8.5 Q5.5 8.5 6 9 Q5.5 9.5 5 9.5 Q4.5 9.5 4 9 Z" fill="#1E40AF"/>
    
    <!-- Right Shoe - Clean, modern design -->
    <path d="M11 8 Q12 7 13 6.5 Q14 6 15 6.5 Q16 7 16.5 8 Q17 9 16.5 10 Q16 11 15 11.5 Q14 12 13 11.5 Q12 11 11 10 Z" fill="white" stroke="#1E40AF" stroke-width="0.3"/>
    <path d="M12 9 Q12.5 8.5 13 8.5 Q13.5 8.5 14 9 Q13.5 9.5 13 9.5 Q12.5 9.5 12 9 Z" fill="#1E40AF"/>
    
    <!-- Subtle Motion Dots -->
    <circle cx="18" cy="8" r="0.5" fill="#10B981" opacity="0.7"/>
    <circle cx="19" cy="7" r="0.4" fill="#10B981" opacity="0.5"/>
  </g>
</svg>
