<svg width="32" height="32" viewBox="0 0 32 32" fill="none" xmlns="http://www.w3.org/2000/svg">
  <!-- Background Circle -->
  <circle cx="16" cy="16" r="15" fill="#3B82F6" stroke="#1E40AF" stroke-width="1"/>
  
  <!-- Shoes Icon -->
  <g transform="translate(8, 8)">
    <!-- Left Shoe -->
    <path d="M2 8 Q3 6 4 6 Q5 6 6 8 Q7 10 6 12 Q5 14 4 14 Q3 14 2 12 Z" fill="white" stroke="#1E40AF" stroke-width="0.5"/>
    <ellipse cx="4" cy="9" rx="1" ry="0.5" fill="#1E40AF"/>
    
    <!-- Right Shoe -->
    <path d="M10 8 Q11 6 12 6 Q13 6 14 8 Q15 10 14 12 Q13 14 12 14 Q11 14 10 12 Z" fill="white" stroke="#1E40AF" stroke-width="0.5"/>
    <ellipse cx="12" cy="9" rx="1" ry="0.5" fill="#1E40AF"/>
    
    <!-- Motion Lines -->
    <line x1="16" y1="9" x2="18" y2="8" stroke="#10B981" stroke-width="1" stroke-linecap="round"/>
    <line x1="16" y1="10" x2="18" y2="9" stroke="#10B981" stroke-width="1" stroke-linecap="round"/>
  </g>
</svg>
