<svg width="300" height="40" viewBox="0 0 300 40" fill="none" xmlns="http://www.w3.org/2000/svg">
  <!-- Text: Walk for Health -->
  <text x="10" y="28" font-family="Arial, sans-serif" font-size="24" font-weight="600" fill="#1F2937">
    Walk for Health
  </text>
  
  <!-- Clean Walking Shoes Icon -->
  <g transform="translate(220, 8)">
    <!-- Left Shoe - Clean, modern design -->
    <path d="M6 16 Q8 14 10 13 Q12 12 14 13 Q16 14 17 16 Q18 18 17 20 Q16 22 14 23 Q12 24 10 23 Q8 22 6 20 Z" fill="#3B82F6" stroke="#1E40AF" stroke-width="0.5"/>
    <path d="M8 18 Q9 17 10 17 Q11 17 12 18 Q11 19 10 19 Q9 19 8 18 Z" fill="#1E40AF"/>
    
    <!-- Right Shoe - Clean, modern design -->
    <path d="M22 16 Q24 14 26 13 Q28 12 30 13 Q32 14 33 16 Q34 18 33 20 Q32 22 30 23 Q28 24 26 23 Q24 22 22 20 Z" fill="#3B82F6" stroke="#1E40AF" stroke-width="0.5"/>
    <path d="M24 18 Q25 17 26 17 Q27 17 28 18 Q27 19 26 19 Q25 19 24 18 Z" fill="#1E40AF"/>
    
    <!-- Subtle Motion Dots -->
    <circle cx="38" cy="16" r="1" fill="#10B981" opacity="0.7"/>
    <circle cx="40" cy="14" r="0.8" fill="#10B981" opacity="0.5"/>
    <circle cx="42" cy="12" r="0.6" fill="#10B981" opacity="0.3"/>
  </g>
</svg>
