<svg width="300" height="40" viewBox="0 0 300 40" fill="none" xmlns="http://www.w3.org/2000/svg">
  <!-- Text: Walk for Health -->
  <text x="10" y="28" font-family="Arial, sans-serif" font-size="24" font-weight="600" fill="#1F2937">
    Walk for Health
  </text>
  
  <!-- Shoes Icon -->
  <g transform="translate(220, 8)">
    <!-- Left Shoe -->
    <path d="M5 15 Q8 12 12 12 Q16 12 18 15 Q20 18 18 22 Q16 25 12 25 Q8 25 5 22 Z" fill="#3B82F6" stroke="#1E40AF" stroke-width="1"/>
    <ellipse cx="12" cy="18" rx="2" ry="1" fill="#1E40AF"/>
    
    <!-- Right Shoe -->
    <path d="M25 15 Q28 12 32 12 Q36 12 38 15 Q40 18 38 22 Q36 25 32 25 Q28 25 25 22 Z" fill="#3B82F6" stroke="#1E40AF" stroke-width="1"/>
    <ellipse cx="32" cy="18" rx="2" ry="1" fill="#1E40AF"/>
    
    <!-- Motion Lines -->
    <line x1="42" y1="18" x2="45" y2="16" stroke="#10B981" stroke-width="2" stroke-linecap="round"/>
    <line x1="42" y1="20" x2="45" y2="18" stroke="#10B981" stroke-width="2" stroke-linecap="round"/>
    <line x1="42" y1="22" x2="45" y2="20" stroke="#10B981" stroke-width="2" stroke-linecap="round"/>
  </g>
</svg>
