<svg width="400" height="300" viewBox="0 0 400 300" fill="none" xmlns="http://www.w3.org/2000/svg">
  <!-- Modern Walking & Health Illustration -->
  
  <!-- Background Elements -->
  <rect x="0" y="0" width="400" height="300" fill="#F8FAFC"/>
  
  <!-- Mountain/Trail Background -->
  <path d="M0 200 Q100 180 200 160 Q300 140 400 120 L400 300 L0 300 Z" 
        fill="#E2E8F0" opacity="0.3"/>
  
  <!-- Walking Path -->
  <path d="M50 250 Q100 240 150 230 Q200 220 250 210 Q300 200 350 190" 
        stroke="#CBD5E1" stroke-width="8" fill="none" stroke-linecap="round" opacity="0.6"/>
  
  <!-- Walking People Silhouettes -->
  <g transform="translate(80, 200)">
    <!-- Person 1 -->
    <circle cx="0" cy="0" r="8" fill="#3B82F6"/>
    <path d="M0 8 L0 25" stroke="#3B82F6" stroke-width="3" stroke-linecap="round"/>
    <path d="M0 25 L-8 35" stroke="#3B82F6" stroke-width="3" stroke-linecap="round"/>
    <path d="M0 25 L8 35" stroke="#3B82F6" stroke-width="3" stroke-linecap="round"/>
    <path d="M0 15 L-6 20" stroke="#3B82F6" stroke-width="3" stroke-linecap="round"/>
    <path d="M0 15 L6 20" stroke="#3B82F6" stroke-width="3" stroke-linecap="round"/>
  </g>
  
  <g transform="translate(120, 190)">
    <!-- Person 2 -->
    <circle cx="0" cy="0" r="8" fill="#10B981"/>
    <path d="M0 8 L0 25" stroke="#10B981" stroke-width="3" stroke-linecap="round"/>
    <path d="M0 25 L-8 35" stroke="#10B981" stroke-width="3" stroke-linecap="round"/>
    <path d="M0 25 L8 35" stroke="#10B981" stroke-width="3" stroke-linecap="round"/>
    <path d="M0 15 L-6 20" stroke="#10B981" stroke-width="3" stroke-linecap="round"/>
    <path d="M0 15 L6 20" stroke="#10B981" stroke-width="3" stroke-linecap="round"/>
  </g>
  
  <g transform="translate(160, 180)">
    <!-- Person 3 -->
    <circle cx="0" cy="0" r="8" fill="#F59E0B"/>
    <path d="M0 8 L0 25" stroke="#F59E0B" stroke-width="3" stroke-linecap="round"/>
    <path d="M0 25 L-8 35" stroke="#F59E0B" stroke-width="3" stroke-linecap="round"/>
    <path d="M0 25 L8 35" stroke="#F59E0B" stroke-width="3" stroke-linecap="round"/>
    <path d="M0 15 L-6 20" stroke="#F59E0B" stroke-width="3" stroke-linecap="round"/>
    <path d="M0 15 L6 20" stroke="#F59E0B" stroke-width="3" stroke-linecap="round"/>
  </g>
  
  <!-- Health & Nature Elements -->
  <!-- Trees -->
  <g transform="translate(50, 150)">
    <circle cx="0" cy="0" r="15" fill="#10B981" opacity="0.7"/>
    <rect x="-2" y="0" width="4" height="20" fill="#8B5A3C"/>
  </g>
  
  <g transform="translate(350, 130)">
    <circle cx="0" cy="0" r="12" fill="#10B981" opacity="0.7"/>
    <rect x="-2" y="0" width="4" height="16" fill="#8B5A3C"/>
  </g>
  
  <!-- Sun -->
  <circle cx="320" cy="40" r="25" fill="#FBBF24" opacity="0.8"/>
  <g transform="translate(320, 40)">
    <path d="M0 -30 L0 -35" stroke="#F59E0B" stroke-width="2" stroke-linecap="round"/>
    <path d="M0 30 L0 35" stroke="#F59E0B" stroke-width="2" stroke-linecap="round"/>
    <path d="M-30 0 L-35 0" stroke="#F59E0B" stroke-width="2" stroke-linecap="round"/>
    <path d="M30 0 L35 0" stroke="#F59E0B" stroke-width="2" stroke-linecap="round"/>
    <path d="M-21 -21 L-25 -25" stroke="#F59E0B" stroke-width="2" stroke-linecap="round"/>
    <path d="M21 21 L25 25" stroke="#F59E0B" stroke-width="2" stroke-linecap="round"/>
    <path d="M-21 21 L-25 25" stroke="#F59E0B" stroke-width="2" stroke-linecap="round"/>
    <path d="M21 -21 L25 -25" stroke="#F59E0B" stroke-width="2" stroke-linecap="round"/>
  </g>
  
  <!-- Health Indicators -->
  <!-- Heart -->
  <g transform="translate(80, 80)">
    <path d="M0 8 Q-8 0 -8 -4 Q-8 -8 0 -12 Q8 -8 8 -4 Q8 0 0 8" 
          fill="#EF4444" opacity="0.8"/>
  </g>
  
  <!-- Water Drop -->
  <g transform="translate(320, 200)">
    <path d="M0 0 Q-8 8 -8 16 Q-8 24 0 32 Q8 24 8 16 Q8 8 0 0" 
          fill="#3B82F6" opacity="0.7"/>
  </g>
  
  <!-- Walking Motion Lines -->
  <path d="M200 100 Q210 95 220 90 Q230 85 240 80" 
        stroke="#10B981" stroke-width="2" fill="none" stroke-linecap="round" opacity="0.6"/>
  <path d="M205 105 Q215 100 225 95 Q235 90 245 85" 
        stroke="#10B981" stroke-width="2" fill="none" stroke-linecap="round" opacity="0.6"/>
  
  <!-- Community Connection Lines -->
  <path d="M80 200 Q120 190 160 180" 
        stroke="#E5E7EB" stroke-width="2" fill="none" stroke-linecap="round" opacity="0.4"/>
  <path d="M160 180 Q200 170 240 160" 
        stroke="#E5E7EB" stroke-width="2" fill="none" stroke-linecap="round" opacity="0.4"/>
  
  <!-- Floating Elements -->
  <circle cx="100" cy="60" r="3" fill="#8B5CF6" opacity="0.6"/>
  <circle cx="300" cy="100" r="2" fill="#EC4899" opacity="0.6"/>
  <circle cx="150" cy="40" r="2.5" fill="#06B6D4" opacity="0.6"/>
</svg>
